<?xml version="1.0" standalone="no"?>
<!DOCTYPE svg PUBLIC "-//W3C//DTD SVG 20010904//EN"
 "http://www.w3.org/TR/2001/REC-SVG-20010904/DTD/svg10.dtd">
<svg version="1.0" xmlns="http://www.w3.org/2000/svg"
 width="512.000000pt" height="512.000000pt" viewBox="0 0 512.000000 512.000000"
 preserveAspectRatio="xMidYMid meet">

<g transform="translate(0.000000,512.000000) scale(0.100000,-0.100000)"
fill="#000000" stroke="none">
<path d="M2020 5113 c-448 -42 -670 -99 -953 -245 -121 -63 -157 -93 -157
-133 0 -31 37 -75 63 -75 12 0 92 35 177 78 85 43 200 92 255 110 444 142 954
156 1680 46 94 -15 175 -31 182 -38 6 -6 35 -64 64 -129 28 -65 60 -122 69
-127 10 -5 66 -23 125 -40 60 -16 109 -31 111 -33 1 -1 6 -58 10 -127 7 -119
8 -126 36 -153 31 -32 65 -31 102 1 17 16 18 29 12 187 -7 202 -11 211 -102
237 -216 62 -199 54 -214 95 -8 21 -16 41 -18 46 -7 14 37 6 180 -33 160 -44
385 -130 488 -187 267 -148 480 -364 604 -612 139 -278 219 -647 227 -1055 l3
-109 -130 -74 c-71 -41 -137 -81 -146 -90 -9 -8 -49 -82 -89 -164 -40 -82 -75
-149 -77 -149 -3 0 -54 16 -113 35 -60 19 -122 35 -139 35 -38 0 -70 -31 -70
-68 0 -54 21 -68 189 -121 88 -28 167 -51 178 -51 38 0 62 33 143 200 l84 170
79 46 c43 25 81 43 85 40 9 -10 -27 -242 -54 -349 -67 -264 -205 -510 -407
-723 -297 -314 -803 -576 -1413 -733 -339 -86 -490 -110 -759 -118 -263 -7
-464 12 -707 68 l-86 20 79 132 c44 74 79 143 79 158 0 14 -41 162 -91 330
-72 243 -95 308 -115 326 -27 25 -54 29 -85 13 -31 -17 -203 -371 -233 -480
-14 -51 -29 -97 -33 -100 -5 -4 -64 -26 -131 -49 l-124 -42 -71 53 c-345 254
-550 567 -629 961 -20 99 -23 139 -22 352 1 262 15 461 45 685 18 130 66 380
74 388 2 2 33 -27 69 -65 l65 -68 1 -116 c0 -139 1 -140 123 -225 140 -99 149
-104 177 -104 35 0 70 38 70 77 0 36 -25 61 -138 137 l-72 50 -1 105 c0 58 -3
113 -7 122 -4 10 -58 72 -119 140 -62 67 -113 129 -113 136 0 24 84 232 133
329 69 137 174 287 281 401 105 113 114 136 71 178 -43 44 -76 35 -153 -43
-281 -280 -472 -678 -572 -1187 -70 -358 -84 -560 -85 -1175 0 -581 3 -609 76
-835 100 -305 278 -563 522 -759 76 -60 226 -161 254 -170 15 -5 86 21 248 89
124 52 228 95 231 95 2 0 4 -88 4 -196 0 -120 4 -203 11 -215 14 -26 66 -48
219 -93 701 -202 1480 -157 2129 123 101 43 120 60 121 106 0 28 7 34 63 62
62 30 63 30 86 12 13 -11 30 -19 39 -19 49 0 359 212 546 373 316 273 508 636
556 1052 13 118 13 1030 0 1227 -71 1032 -487 1594 -1370 1848 -323 93 -804
173 -1205 200 -139 9 -434 11 -515 3z"/>
<path d="M2400 4754 c-95 -86 -183 -262 -225 -452 -24 -108 -45 -267 -45 -343
0 -34 -7 -49 -41 -87 -67 -76 -130 -222 -131 -304 0 -40 23 -78 49 -78 10 0
13 -18 13 -73 0 -71 0 -73 -30 -84 -59 -22 -58 -38 21 -541 22 -140 38 -260
36 -266 -2 -6 -18 19 -35 54 -21 44 -41 112 -60 210 -45 223 -107 348 -212
428 -25 18 -48 43 -52 55 -4 12 -21 68 -38 125 -55 175 -189 372 -255 372 -56
0 -161 -146 -218 -304 -24 -66 -30 -102 -34 -191 -3 -60 -1 -128 4 -150 7 -31
5 -52 -10 -95 -29 -84 -20 -214 26 -351 58 -172 136 -323 336 -649 46 -74 103
-175 128 -225 62 -122 112 -193 202 -288 198 -208 478 -369 641 -369 163 0
443 161 641 369 90 95 140 166 202 288 25 50 82 151 128 225 199 324 277 474
337 649 33 98 36 115 36 221 0 83 -4 124 -16 149 -12 26 -13 43 -6 75 5 22 8
91 5 151 -3 89 -10 125 -34 191 -57 158 -162 304 -218 304 -66 0 -200 -197
-255 -372 -17 -57 -34 -113 -38 -125 -4 -12 -27 -37 -52 -55 -105 -80 -167
-205 -212 -428 -19 -98 -39 -166 -60 -210 -17 -35 -33 -60 -35 -54 -2 6 20
157 49 335 49 306 52 334 52 509 0 158 -4 196 -22 261 -26 98 -69 181 -121
241 -34 38 -41 53 -41 87 0 76 -21 235 -45 344 -41 184 -133 367 -225 451 -53
48 -87 48 -140 0z"/>
</g>
</svg>
